<svg width="53" height="56" viewBox="0 0 53 56" fill="none" xmlns="http://www.w3.org/2000/svg">
<path d="M45.3882 52.1452C40.1612 57.7507 26.7751 52.4836 15.4895 40.3809C4.20391 28.2781 -0.707544 13.9228 4.51945 8.31732L7.96103 4.62655C10.3369 2.0786 14.2519 2.14595 16.7053 4.77698L22.036 10.4937C24.4894 13.1247 24.5522 17.3231 22.1762 19.871L21.437 20.6638C20.1542 22.0394 20.0287 24.2587 21.2207 25.8077C22.3704 27.3018 23.6099 28.79 24.9538 30.2313C26.2977 31.6725 27.6855 33.0017 29.0787 34.2347C30.5232 35.5129 32.5926 35.3784 33.8753 34.0027L34.6146 33.21C36.9905 30.662 40.9054 30.7294 43.3588 33.3604L48.6895 39.0771C51.1429 41.7081 51.2057 45.9065 48.8298 48.4544L45.3882 52.1452Z" stroke="#ECB176" stroke-width="3"/>
<path d="M41.5487 19.9677C40.8961 18.2606 39.9235 16.6612 38.631 15.275C37.4114 13.9671 36.0148 12.9648 34.5238 12.2679" stroke="#ECB176" stroke-width="3" stroke-linecap="round"/>
<path d="M34.5241 2.50743C38.0937 3.89425 41.4429 6.12213 44.3047 9.19114C47.2384 12.3372 49.3478 16.0324 50.6331 19.9686" stroke="#ECB176" stroke-width="3" stroke-linecap="round"/>
</svg>
