<svg width="32" height="32" viewBox="0 0 32 32" fill="none" xmlns="http://www.w3.org/2000/svg">
<g clip-path="url(#clip0_145_708)">
<path d="M0.69043 7.05463C0.69043 8.74883 1.36345 10.3736 2.56143 11.5716C3.75941 12.7696 5.38423 13.4426 7.07843 13.4426C8.77263 13.4426 10.3974 12.7696 11.5954 11.5716C12.7934 10.3736 13.4664 8.74883 13.4664 7.05463C13.4664 6.21574 13.3012 5.38507 12.9802 4.61004C12.6591 3.83502 12.1886 3.13081 11.5954 2.53763C11.0022 1.94445 10.298 1.47391 9.52301 1.15288C8.74798 0.831856 7.91731 0.666626 7.07843 0.666626C6.23955 0.666626 5.40888 0.831856 4.63385 1.15288C3.85882 1.47391 3.15461 1.94445 2.56143 2.53763C1.96825 3.13081 1.49771 3.83502 1.17669 4.61004C0.85566 5.38507 0.69043 6.21574 0.69043 7.05463Z" stroke="#A87E54" stroke-width="2" stroke-linecap="round" stroke-linejoin="round"/>
<path d="M5.0791 29.7026C5.07945 30.135 5.25137 30.5496 5.5571 30.8553C5.86284 31.161 6.2774 31.333 6.70977 31.3333H29.2711C29.8118 31.3333 30.3303 31.1185 30.7127 30.7362C31.095 30.3539 31.3098 29.8353 31.3098 29.2946C31.3098 28.754 31.095 28.2354 30.7127 27.8531C30.3303 27.4708 29.8118 27.256 29.2711 27.256H5.0791V29.7026Z" stroke="#A87E54" stroke-width="2" stroke-linecap="round" stroke-linejoin="round"/>
<path d="M7.0791 7.0547L9.36177 5.22937" stroke="#A87E54" stroke-width="2" stroke-linecap="round" stroke-linejoin="round"/>
<path d="M16.0091 14.444H27.1558C27.1558 14.444 28.4891 14.444 28.4891 15.7773V25.924C28.4891 25.924 28.4891 27.2573 27.1558 27.2573H16.0091C16.0091 27.2573 14.6758 27.2573 14.6758 25.924V15.7773C14.6758 15.7773 14.6758 14.444 16.0091 14.444Z" stroke="#A87E54" stroke-width="2" stroke-linecap="round" stroke-linejoin="round"/>
<path d="M19.5277 4.89465H27.1557C27.1557 4.89465 28.489 4.89465 28.489 6.22799V13.1107C28.489 13.1107 28.489 14.444 27.1557 14.444H19.5277C19.5277 14.444 18.1943 14.444 18.1943 13.1107V6.22799C18.1943 6.22799 18.1943 4.89465 19.5277 4.89465Z" stroke="#A87E54" stroke-width="2" stroke-linecap="round" stroke-linejoin="round"/>
<path d="M19.5107 14.444V20.66H23.6547V14.444" stroke="#A87E54" stroke-width="2" stroke-linecap="round" stroke-linejoin="round"/>
<path d="M5.0791 27.256V13.124" stroke="#A87E54" stroke-width="2" stroke-linecap="round" stroke-linejoin="round"/>
<path d="M8.87695 27.256V13.1866" stroke="#A87E54" stroke-width="2" stroke-linecap="round" stroke-linejoin="round"/>
</g>
<defs>
<clipPath id="clip0_145_708">
<rect width="32" height="32" fill="white"/>
</clipPath>
</defs>
</svg>
