<svg width="32" height="32" viewBox="0 0 32 32" fill="none" xmlns="http://www.w3.org/2000/svg">
<g clip-path="url(#clip0_145_674)">
<path d="M2.44153 30.4773C2.46623 30.7122 2.57704 30.9297 2.75259 31.0877C2.92813 31.2458 3.15597 31.3333 3.39219 31.3333H18.8882C19.1244 31.3333 19.3523 31.2458 19.5278 31.0877C19.7033 30.9297 19.8141 30.7122 19.8389 30.4773L21.6082 13.6693C21.6251 13.5097 21.6016 13.3483 21.5399 13.2002C21.4781 13.052 21.3801 12.9217 21.2549 12.8213C18.3839 10.5315 14.8123 9.29987 11.1402 9.3333C7.46811 9.29987 3.89646 10.5315 1.02553 12.8213C0.900443 12.9219 0.802564 13.0522 0.740839 13.2003C0.679113 13.3484 0.655512 13.5097 0.672192 13.6693L2.44153 30.4773Z" stroke="#A87E54" stroke-width="2" stroke-linecap="round" stroke-linejoin="round"/>
<path d="M21.1895 17.652H1.09082" stroke="#A87E54" stroke-width="2" stroke-linecap="round" stroke-linejoin="round"/>
<path d="M4.70702 26.384C4.75927 26.9515 5.0282 27.4771 5.45791 27.8515C5.88763 28.226 6.44509 28.4204 7.01446 28.3945C7.58383 28.3686 8.12132 28.1243 8.51524 27.7124C8.90916 27.3004 9.12921 26.7526 9.12969 26.1826V22.9826C9.13097 22.6586 9.0664 22.3377 8.93991 22.0394C8.81342 21.7411 8.62764 21.4716 8.39384 21.2472C8.16005 21.0229 7.88311 20.8484 7.57983 20.7343C7.27655 20.6202 6.95326 20.569 6.62957 20.5836C6.30588 20.5983 5.98854 20.6785 5.69681 20.8195C5.40507 20.9605 5.14503 21.1593 4.93245 21.4039C4.71987 21.6484 4.55919 21.9336 4.46016 22.2421C4.36113 22.5506 4.32581 22.876 4.35635 23.1986L4.70702 26.384Z" stroke="#A87E54" stroke-width="2" stroke-linecap="round" stroke-linejoin="round"/>
<path d="M17.5731 26.384C17.5208 26.9515 17.2519 27.4771 16.8222 27.8515C16.3925 28.226 15.835 28.4204 15.2656 28.3945C14.6963 28.3686 14.1588 28.1243 13.7649 27.7124C13.3709 27.3004 13.1509 26.7526 13.1504 26.1826V22.9826C13.1491 22.6586 13.2137 22.3377 13.3402 22.0394C13.4667 21.7411 13.6525 21.4716 13.8863 21.2472C14.12 21.0229 14.397 20.8484 14.7003 20.7343C15.0035 20.6202 15.3268 20.569 15.6505 20.5836C15.9742 20.5983 16.2916 20.6785 16.5833 20.8195C16.875 20.9605 17.1351 21.1593 17.3476 21.4039C17.5602 21.6484 17.7209 21.9336 17.8199 22.2421C17.919 22.5506 17.9543 22.876 17.9237 23.1986L17.5731 26.384Z" stroke="#A87E54" stroke-width="2" stroke-linecap="round" stroke-linejoin="round"/>
<path d="M8.90234 17.652L11.1397 14.064L13.377 17.652" stroke="#A87E54" stroke-width="2" stroke-linecap="round" stroke-linejoin="round"/>
<path d="M11.1396 11.4347V9.33337" stroke="#A87E54" stroke-width="2" stroke-linecap="round" stroke-linejoin="round"/>
<path d="M14.8398 11.8787L15.5372 9.91199" stroke="#A87E54" stroke-width="2" stroke-linecap="round" stroke-linejoin="round"/>
<path d="M17.8828 13.0827L19.0001 11.312" stroke="#A87E54" stroke-width="2" stroke-linecap="round" stroke-linejoin="round"/>
<path d="M7.43952 11.8787L6.74219 9.91199" stroke="#A87E54" stroke-width="2" stroke-linecap="round" stroke-linejoin="round"/>
<path d="M4.39761 13.0827L3.28027 11.312" stroke="#A87E54" stroke-width="2" stroke-linecap="round" stroke-linejoin="round"/>
<path d="M23.5997 10.3813C23.5852 9.86213 23.3725 9.36822 23.0053 9.00099C22.6381 8.63375 22.1441 8.42107 21.625 8.40662" stroke="#A87E54" stroke-width="2" stroke-linecap="round" stroke-linejoin="round"/>
<path d="M27.4669 10.4574C27.4235 8.90097 26.7859 7.42025 25.6849 6.3193C24.584 5.21834 23.1033 4.58071 21.5469 4.53735" stroke="#A87E54" stroke-linecap="round" stroke-linejoin="round"/>
<path d="M27.4669 10.4574C27.4235 8.90097 26.7859 7.42025 25.6849 6.3193C24.584 5.21834 23.1033 4.58071 21.5469 4.53735" stroke="#A87E54" stroke-width="2" stroke-linecap="round" stroke-linejoin="round"/>
<path d="M31.3335 10.5333C31.2606 7.93953 30.1976 5.47204 28.3628 3.63724C26.5281 1.80245 24.0606 0.739525 21.4668 0.666626" stroke="#A87E54" stroke-linecap="round" stroke-linejoin="round"/>
<path d="M31.3335 10.5333C31.2606 7.93953 30.1976 5.47204 28.3628 3.63724C26.5281 1.80245 24.0606 0.739525 21.4668 0.666626" stroke="#A87E54" stroke-width="2" stroke-linecap="round" stroke-linejoin="round"/>
</g>
<defs>
<clipPath id="clip0_145_674">
<rect width="32" height="32" fill="white"/>
</clipPath>
</defs>
</svg>
