<svg width="32" height="32" viewBox="0 0 32 32" fill="none" xmlns="http://www.w3.org/2000/svg">
<g clip-path="url(#clip0_145_700)">
<path d="M18.4934 24.0667C16.8465 24.7041 15.0992 25.0428 13.3334 25.0667C11.2266 25.0771 9.17029 24.4217 7.45796 23.1943C5.74563 21.9668 4.46474 20.2298 3.79805 18.2312C3.13136 16.2326 3.11294 14.0745 3.74541 12.0648C4.37788 10.0552 5.62894 8.29658 7.32006 7.04003C7.70673 6.66669 11.0267 3.73336 18.6667 3.73336C22.3616 3.9207 26.0273 2.9915 29.1867 1.06669C29.2852 1.01417 29.3951 0.986694 29.5067 0.986694C29.6183 0.986694 29.7282 1.01417 29.8267 1.06669C29.9306 1.10701 30.0221 1.17372 30.0922 1.26024C30.1624 1.34676 30.2088 1.4501 30.2267 1.56003C30.9903 5.91358 30.5001 10.3945 28.8134 14.48" stroke="#A87E54" stroke-width="2" stroke-linecap="round" stroke-linejoin="round"/>
<path d="M31.32 26.16C31.3107 26.8383 31.1632 27.5077 30.8864 28.127C30.6096 28.7463 30.2093 29.3027 29.71 29.762C29.2108 30.2213 28.6231 30.5739 27.9829 30.7982C27.3427 31.0226 26.6634 31.1139 25.9867 31.0667C25.3099 31.1139 24.6307 31.0226 23.9904 30.7982C23.3502 30.5739 22.7625 30.2213 22.2633 29.762C21.764 29.3027 21.3637 28.7463 21.0869 28.127C20.8101 27.5077 20.6626 26.8383 20.6533 26.16C20.6533 23.8134 24.0267 17.92 25.4 15.6267C25.4562 15.5238 25.5391 15.4379 25.64 15.378C25.7409 15.3182 25.856 15.2866 25.9733 15.2866C26.0906 15.2866 26.2057 15.3182 26.3066 15.378C26.4075 15.4379 26.4904 15.5238 26.5467 15.6267C28 17.92 31.32 23.8134 31.32 26.16Z" stroke="#A87E54" stroke-width="2" stroke-linecap="round" stroke-linejoin="round"/>
<path d="M22.013 11.7467C10.6664 11.5867 0.679688 19.4133 0.679688 29.7333V31.0667" stroke="#A87E54" stroke-width="2" stroke-linecap="round" stroke-linejoin="round"/>
</g>
<defs>
<clipPath id="clip0_145_700">
<rect width="32" height="32" fill="white"/>
</clipPath>
</defs>
</svg>
