<svg width="32" height="32" viewBox="0 0 32 32" fill="none" xmlns="http://www.w3.org/2000/svg">
<path d="M23.6252 12.7031L26.4589 14.236L27.0521 14.5693C28.316 15.2793 28.316 17.11 27.0521 17.8201L19.0033 22.3422C17.1366 23.3909 14.8634 23.3909 12.9967 22.3422L4.9479 17.8201C3.68403 17.11 3.68403 15.2793 4.9479 14.5693L5.54113 14.236L8.21779 12.7031M24.2415 19.5281L26.8172 20.8247C28.1456 21.4934 28.1883 23.3864 26.8913 24.115L19.0033 28.5468C17.1366 29.5955 14.8634 29.5955 12.9967 28.5468L5.22373 24.1797C3.90453 23.4385 3.97722 21.5037 5.34826 20.865L8.21779 19.5281M19.0033 15.7482L27.0521 11.2262C28.316 10.5161 28.316 8.68542 27.0521 7.97534L19.0033 3.45326C17.1366 2.4045 14.8634 2.4045 12.9967 3.45326L4.9479 7.97534C3.68404 8.68542 3.68403 10.5161 4.9479 11.2262L12.9967 15.7482C14.8634 16.797 17.1366 16.797 19.0033 15.7482Z" stroke="#A87E54" stroke-width="2"/>
</svg>
