<svg width="32" height="32" viewBox="0 0 32 32" fill="none" xmlns="http://www.w3.org/2000/svg">
<g clip-path="url(#clip0_145_720)">
<path d="M12.6667 8.70667H19.3333C19.3333 8.70667 22 8.70666 22 11.3733V23.3733C22 23.3733 22 26.04 19.3333 26.04H12.6667C12.6667 26.04 10 26.04 10 23.3733V11.3733C10 11.3733 10 8.70667 12.6667 8.70667Z" stroke="#A87E54" stroke-width="2" stroke-linecap="round" stroke-linejoin="round"/>
<path d="M14 8.70671V7.37337C14 7.01975 14.1405 6.68061 14.3905 6.43056C14.6406 6.18051 14.9797 6.04004 15.3333 6.04004H16.6667C17.0203 6.04004 17.3594 6.18051 17.6095 6.43056C17.8595 6.68061 18 7.01975 18 7.37337V8.70671" stroke="#A87E54" stroke-width="2" stroke-linecap="round" stroke-linejoin="round"/>
<path d="M1.02683 19.3733C0.563623 17.2731 0.547438 15.0989 0.979325 12.9919C1.41121 10.885 2.28151 8.89251 3.53368 7.14387C4.78584 5.39523 6.39187 3.92957 8.24743 2.84211C10.103 1.75464 12.1666 1.0697 14.3041 0.831782C16.4416 0.59386 18.6053 0.808279 20.6546 1.46111C22.7038 2.11394 24.5928 3.19058 26.1989 4.62108C27.8049 6.05159 29.092 7.80395 29.9766 9.76435C30.8612 11.7247 31.3235 13.8493 31.3335 16C31.3368 17.121 31.216 18.2389 30.9735 19.3333" stroke="#A87E54" stroke-width="2" stroke-linecap="round" stroke-linejoin="round"/>
<path d="M29.9596 22.4C29.5 23.383 28.9416 24.3167 28.293 25.1867" stroke="#A87E54" stroke-width="2" stroke-linecap="round" stroke-linejoin="round"/>
<path d="M26.1999 27.48C25.378 28.2006 24.4844 28.835 23.5332 29.3734" stroke="#A87E54" stroke-width="2" stroke-linecap="round" stroke-linejoin="round"/>
<path d="M20.7196 30.6667C19.6914 30.9949 18.6327 31.2183 17.5596 31.3334" stroke="#A87E54" stroke-width="2" stroke-linecap="round" stroke-linejoin="round"/>
<path d="M14.4403 31.2934C13.3685 31.1913 12.3098 30.9814 11.2803 30.6667" stroke="#A87E54" stroke-width="2" stroke-linecap="round" stroke-linejoin="round"/>
<path d="M8.42643 29.3333C7.47521 28.795 6.58165 28.1605 5.75977 27.44" stroke="#A87E54" stroke-width="2" stroke-linecap="round" stroke-linejoin="round"/>
<path d="M3.70671 25.1867C3.05265 24.3204 2.49386 23.3861 2.04004 22.4" stroke="#A87E54" stroke-width="2" stroke-linecap="round" stroke-linejoin="round"/>
<path d="M17.3334 12.7067L14.2801 16.28C14.1956 16.3747 14.1405 16.492 14.1216 16.6175C14.1026 16.7429 14.1207 16.8712 14.1734 16.9867C14.2275 17.1034 14.3141 17.2021 14.4229 17.2707C14.5318 17.3393 14.6581 17.3749 14.7868 17.3733H17.2134C17.3417 17.3734 17.4674 17.4097 17.5759 17.4781C17.6845 17.5465 17.7714 17.6443 17.8268 17.76C17.879 17.8778 17.8968 18.008 17.8779 18.1355C17.859 18.2629 17.8043 18.3824 17.7201 18.48L14.6668 22.04" stroke="#A87E54" stroke-width="2" stroke-linecap="round" stroke-linejoin="round"/>
</g>
<defs>
<clipPath id="clip0_145_720">
<rect width="32" height="32" fill="white"/>
</clipPath>
</defs>
</svg>
