<svg width="32" height="32" viewBox="0 0 32 32" fill="none" xmlns="http://www.w3.org/2000/svg">
<g clip-path="url(#clip0_145_656)">
<path d="M29.333 30.6667C29.6866 30.6667 30.0258 30.5262 30.2758 30.2762C30.5259 30.0261 30.6663 29.687 30.6663 29.3334" stroke="#A87E54" stroke-width="2" stroke-linecap="round" stroke-linejoin="round"/>
<path d="M14.6663 30.6666H13.333" stroke="#A87E54" stroke-width="2" stroke-linecap="round" stroke-linejoin="round"/>
<path d="M10.6663 30.6666H9.33301" stroke="#A87E54" stroke-width="2" stroke-linecap="round" stroke-linejoin="round"/>
<path d="M18.6663 30.6666H17.333" stroke="#A87E54" stroke-width="2" stroke-linecap="round" stroke-linejoin="round"/>
<path d="M22.6663 30.6666H21.333" stroke="#A87E54" stroke-width="2" stroke-linecap="round" stroke-linejoin="round"/>
<path d="M26.6663 30.6666H25.333" stroke="#A87E54" stroke-width="2" stroke-linecap="round" stroke-linejoin="round"/>
<path d="M30.667 21.3334V22.6667" stroke="#A87E54" stroke-width="2" stroke-linecap="round" stroke-linejoin="round"/>
<path d="M30.667 17.3334V18.6667" stroke="#A87E54" stroke-width="2" stroke-linecap="round" stroke-linejoin="round"/>
<path d="M30.667 13.3334V14.6667" stroke="#A87E54" stroke-width="2" stroke-linecap="round" stroke-linejoin="round"/>
<path d="M30.667 9.33337V10.6667" stroke="#A87E54" stroke-width="2" stroke-linecap="round" stroke-linejoin="round"/>
<path d="M30.667 25.3334V26.6667" stroke="#A87E54" stroke-width="2" stroke-linecap="round" stroke-linejoin="round"/>
<path d="M6.66699 30.6666V6.66663H30.667" stroke="#A87E54" stroke-width="2" stroke-linecap="round" stroke-linejoin="round"/>
<path d="M24 1.33337L30.6667 6.66671L24 12" stroke="#A87E54" stroke-width="2" stroke-linecap="round" stroke-linejoin="round"/>
<path d="M1.33301 24L6.66634 30.6667L11.9997 24" stroke="#A87E54" stroke-width="2" stroke-linecap="round" stroke-linejoin="round"/>
</g>
<defs>
<clipPath id="clip0_145_656">
<rect width="32" height="32" fill="white"/>
</clipPath>
</defs>
</svg>
