<svg width="32" height="32" viewBox="0 0 32 32" fill="none" xmlns="http://www.w3.org/2000/svg">
<g clip-path="url(#clip0_145_693)">
<path d="M18.667 21.388V3.33329C18.667 2.62605 18.386 1.94777 17.8859 1.44767C17.3858 0.947578 16.7076 0.666626 16.0003 0.666626C15.2931 0.666626 14.6148 0.947578 14.1147 1.44767C13.6146 1.94777 13.3337 2.62605 13.3337 3.33329V21.388C12.3169 21.975 11.5223 22.8811 11.073 23.9658C10.6237 25.0505 10.5449 26.2531 10.8487 27.3871C11.1526 28.5212 11.8222 29.5233 12.7536 30.238C13.685 30.9527 14.8263 31.3401 16.0003 31.3401C17.1744 31.3401 18.3156 30.9527 19.2471 30.238C20.1785 29.5233 20.8481 28.5212 21.1519 27.3871C21.4558 26.2531 21.377 25.0505 20.9277 23.9658C20.4784 22.8811 19.6838 21.975 18.667 21.388Z" stroke="#A87E54" stroke-width="2" stroke-linecap="round" stroke-linejoin="round"/>
<path d="M14.667 26C14.667 26.3536 14.8075 26.6927 15.0575 26.9428C15.3076 27.1928 15.6467 27.3333 16.0003 27.3333C16.3539 27.3333 16.6931 27.1928 16.9431 26.9428C17.1932 26.6927 17.3337 26.3536 17.3337 26C17.3337 25.6463 17.1932 25.3072 16.9431 25.0571C16.6931 24.8071 16.3539 24.6666 16.0003 24.6666C15.6467 24.6666 15.3076 24.8071 15.0575 25.0571C14.8075 25.3072 14.667 25.6463 14.667 26Z" stroke="#A87E54" stroke-width="2" stroke-linecap="round" stroke-linejoin="round"/>
<path d="M16 24.6667V10" stroke="#A87E54" stroke-width="2" stroke-linecap="round" stroke-linejoin="round"/>
</g>
<defs>
<clipPath id="clip0_145_693">
<rect width="32" height="32" fill="white"/>
</clipPath>
</defs>
</svg>
